# xmcd CD database file
#
# Track frame offsets:
#	183
#	11005
#	20375
#	32410
#	42445
#	54540
#	64983
#	76238
#	85805
#	95930
#	106100
#	116010
#	123508
#	130963
#	139900
#	151258
#	180048
#	188723
#	190930
#	192065
#	198660
#	206605
#	211950
#	218823
#	284413
#
# Disc length: 3905 seconds
#
# Revision: 0
# Processed by: cddbd v1.4PL0 Copyright (c) Steve Scherf et al.
# Submitted via: CDex 1.50beta8
#
DISCID=650f3f19
DTITLE=Buddy Holly - Bob Montgomery - That'll Be The Day - Buddy Holly Live
DYEAR=1992
DGENRE=Country
TTITLE0=Buddy Holly - You Are My One Desire
TTITLE1=Buddy Holly - Blue Days Black Nights
TTITLE2=Buddy Holly - Modern Don Juan
TTITLE3=Buddy Holly - Rock Around With Ollie Vee
TTITLE4=Buddy Holly - Ting-a-Ling (Unspliced on intro.!)
TTITLE5=Buddy Holly - Girl On My Mind
TTITLE6=Buddy Holly - That'll Be The Day
TTITLE7=Buddy Holly - Love Me
TTITLE8=Buddy Holly - I'm Changing All Those Changes
TTITLE9=Buddy Holly - Don't Come Back Knockin'
TTITLE10=Buddy Holly - Midnight Shift
TTITLE11=Buddy Holly - Interview by Alan Freed
TTITLE12=Buddy Holly - Learning The Game (Unreleased and undubbed version Jan. 1959)
TTITLE13=Buddy Holly - Interview by Dick Clark
TTITLE14=Buddy Holly - Flower Of My Heart (With Bob Montgomery)
TTITLE15=Buddy Holly - That'll Be The Day/Peggy Sue/Oh Boy - 3 songs all live, 2nd. March 1958 from London Palladium
TTITLE16=Buddy Holly - Maybe Baby (1st. version, recorded May 1957, Clovis)
TTITLE17=Buddy Holly - Interview Part 1, Topeka, Kansas, 1957
TTITLE18=Buddy Holly - Interview Part 2, Topeka, Kansas, 1957
TTITLE19=Buddy Holly - Rip It Up (Recorded in Lubbock)
TTITLE20=Buddy Holly - Love Is Strange (Unreleased and undubbed version, January 1959)
TTITLE21=Buddy Holly - Gone (Recorded 1956 in Lubbock) (+ Fireballs?)
TTITLE22=Buddy Holly - You're The One (Undubbed master, December 1958, Radio K.L.L.L.)
TTITLE23=Buddy Holly - A Tribute To Buddy Holly (Medley by The Crickets, February 1969)
TTITLE24=Buddy Holly - (Ummm, Oh Yeah) Dearest (22/1/59) (Take 1) (Undubbed)
EXTD=YEAR: 1992
EXTT0=
EXTT1=
EXTT2=
EXTT3=
EXTT4=
EXTT5=
EXTT6=
EXTT7=
EXTT8=
EXTT9=
EXTT10=
EXTT11=
EXTT12=
EXTT13=
EXTT14=
EXTT15=
EXTT16=
EXTT17=
EXTT18=
EXTT19=
EXTT20=
EXTT21=
EXTT22=
EXTT23=
EXTT24=
PLAYORDER=
